<svg viewBox="0 0 1600 500" xmlns="http://www.w3.org/2000/svg">
  <defs>
    <linearGradient id="bg" x1="0%" y1="0%" x2="100%" y2="100%">
      <stop offset="0%" stop-color="#05070d"/>
      <stop offset="45%" stop-color="#0a0f1f"/>
      <stop offset="100%" stop-color="#0d1428"/>
    </linearGradient>
    <linearGradient id="redGlow" x1="0%" y1="0%" x2="100%" y2="0%">
      <stop offset="0%" stop-color="#FF2D20" stop-opacity="0.9"/>
      <stop offset="100%" stop-color="#FF2D20" stop-opacity="0"/>
    </linearGradient>
    <radialGradient id="glowSpot" cx="50%" cy="50%" r="50%">
      <stop offset="0%" stop-color="#FF2D20" stop-opacity="0.35"/>
      <stop offset="100%" stop-color="#FF2D20" stop-opacity="0"/>
    </radialGradient>
    <linearGradient id="boxTop" x1="0%" y1="0%" x2="100%" y2="100%">
      <stop offset="0%" stop-color="#1c2440"/>
      <stop offset="100%" stop-color="#141a30"/>
    </linearGradient>
    <linearGradient id="boxFront" x1="0%" y1="0%" x2="0%" y2="100%">
      <stop offset="0%" stop-color="#101528"/>
      <stop offset="100%" stop-color="#0a0e1c"/>
    </linearGradient>
    <linearGradient id="boxSide" x1="0%" y1="0%" x2="100%" y2="0%">
      <stop offset="0%" stop-color="#0c1122"/>
      <stop offset="100%" stop-color="#070a14"/>
    </linearGradient>
    <linearGradient id="dbGrad" x1="0%" y1="0%" x2="0%" y2="100%">
      <stop offset="0%" stop-color="#1a2140"/>
      <stop offset="100%" stop-color="#0b0e1c"/>
    </linearGradient>
    <filter id="softGlow" x="-50%" y="-50%" width="200%" height="200%">
      <feGaussianBlur stdDeviation="6" result="blur"/>
      <feMerge>
        <feMergeNode in="blur"/>
        <feMergeNode in="SourceGraphic"/>
      </feMerge>
    </filter>
  </defs>

  <!-- Background -->
  <rect width="1600" height="500" fill="url(#bg)"/>
  <circle cx="1250" cy="150" r="380" fill="url(#glowSpot)"/>
  <circle cx="150" cy="420" r="280" fill="url(#glowSpot)" opacity="0.5"/>

  <!-- subtle grid -->
  <g stroke="#1e2740" stroke-width="1" opacity="0.35">
    <line x1="0" y1="80" x2="1600" y2="80"/>
    <line x1="0" y1="420" x2="1600" y2="420"/>
    <line x1="800" y1="0" x2="800" y2="500"/>
  </g>

  <!-- API network lines (right side) -->
  <g stroke="#FF2D20" stroke-width="1.6" fill="none" opacity="0.55">
    <path d="M 980 90 L 1120 140 L 1260 100" />
    <path d="M 1120 140 L 1120 260" />
    <path d="M 1260 100 L 1400 170 L 1400 300" />
    <path d="M 1120 260 L 1260 320 L 1400 300" />
    <path d="M 1260 320 L 1260 400" />
    <path d="M 980 90 L 980 230 L 1120 260" />
  </g>
  <g fill="#FF2D20">
    <circle cx="980" cy="90" r="6"/>
    <circle cx="1120" cy="140" r="7"/>
    <circle cx="1260" cy="100" r="6"/>
    <circle cx="1400" cy="170" r="7"/>
    <circle cx="980" cy="230" r="5"/>
    <circle cx="1120" cy="260" r="7"/>
    <circle cx="1260" cy="320" r="6"/>
    <circle cx="1400" cy="300" r="6"/>
    <circle cx="1260" cy="400" r="5"/>
  </g>
  <g fill="#ffffff" opacity="0.85">
    <circle cx="980" cy="90" r="2.5"/>
    <circle cx="1120" cy="140" r="3"/>
    <circle cx="1260" cy="100" r="2.5"/>
    <circle cx="1400" cy="170" r="3"/>
    <circle cx="1120" cy="260" r="3"/>
    <circle cx="1260" cy="320" r="2.5"/>
    <circle cx="1400" cy="300" r="2.5"/>
  </g>

  <!-- Database cylinder -->
  <g transform="translate(1180,300)" filter="url(#softGlow)">
    <ellipse cx="0" cy="0" rx="70" ry="22" fill="url(#dbGrad)" stroke="#FF2D20" stroke-width="2"/>
    <path d="M -70,0 L -70,90 A 70,22 0 0 0 70,90 L 70,0" fill="url(#dbGrad)" stroke="#FF2D20" stroke-width="2"/>
    <ellipse cx="0" cy="30" rx="70" ry="22" fill="none" stroke="#FF2D20" stroke-width="1.4" opacity="0.7"/>
    <ellipse cx="0" cy="60" rx="70" ry="22" fill="none" stroke="#FF2D20" stroke-width="1.4" opacity="0.7"/>
    <ellipse cx="0" cy="0" rx="70" ry="22" fill="none" stroke="#ffffff" stroke-width="1" opacity="0.25"/>
  </g>

  <!-- Inventory boxes (isometric stack), left/center-right lower area -->
  <g transform="translate(960,360)">
    <!-- box 1 -->
    <g transform="translate(0,0)">
      <polygon points="0,-20 40,-40 80,-20 40,0" fill="url(#boxTop)" stroke="#FF2D20" stroke-width="1.5"/>
      <polygon points="0,-20 40,0 40,40 0,20" fill="url(#boxFront)" stroke="#FF2D20" stroke-width="1.5"/>
      <polygon points="40,0 80,-20 80,20 40,40" fill="url(#boxSide)" stroke="#FF2D20" stroke-width="1.5"/>
      <line x1="20" y1="-10" x2="20" y2="30" stroke="#FF2D20" stroke-width="1" opacity="0.5"/>
      <line x1="60" y1="-10" x2="60" y2="30" stroke="#FF2D20" stroke-width="1" opacity="0.5"/>
    </g>
    <!-- box 2 -->
    <g transform="translate(-95,25)">
      <polygon points="0,-20 40,-40 80,-20 40,0" fill="url(#boxTop)" stroke="#FF2D20" stroke-width="1.5"/>
      <polygon points="0,-20 40,0 40,40 0,20" fill="url(#boxFront)" stroke="#FF2D20" stroke-width="1.5"/>
      <polygon points="40,0 80,-20 80,20 40,40" fill="url(#boxSide)" stroke="#FF2D20" stroke-width="1.5"/>
      <line x1="20" y1="-10" x2="20" y2="30" stroke="#FF2D20" stroke-width="1" opacity="0.5"/>
      <line x1="60" y1="-10" x2="60" y2="30" stroke="#FF2D20" stroke-width="1" opacity="0.5"/>
    </g>
    <!-- box 3 stacked -->
    <g transform="translate(-47,-40)">
      <polygon points="0,-20 40,-40 80,-20 40,0" fill="url(#boxTop)" stroke="#FF2D20" stroke-width="1.5"/>
      <polygon points="0,-20 40,0 40,40 0,20" fill="url(#boxFront)" stroke="#FF2D20" stroke-width="1.5"/>
      <polygon points="40,0 80,-20 80,20 40,40" fill="url(#boxSide)" stroke="#FF2D20" stroke-width="1.5"/>
      <line x1="20" y1="-10" x2="20" y2="30" stroke="#FF2D20" stroke-width="1" opacity="0.5"/>
      <line x1="60" y1="-10" x2="60" y2="30" stroke="#FF2D20" stroke-width="1" opacity="0.5"/>
    </g>
  </g>

  <!-- Laravel-esque angular accent mark near title -->
  <g transform="translate(75,60)">
    <polygon points="0,40 30,0 60,40 30,80" fill="none" stroke="#FF2D20" stroke-width="2.5" opacity="0.9"/>
    <polygon points="15,40 30,20 45,40 30,60" fill="#FF2D20" opacity="0.85"/>
  </g>

  <!-- red accent bar under title -->
  <rect x="80" y="255" width="120" height="6" rx="3" fill="#FF2D20"/>
  <rect x="80" y="255" width="120" height="6" rx="3" fill="url(#redGlow)"/>

  <!-- Title -->
  <text x="80" y="230" font-family="Arial, Helvetica, sans-serif" font-size="58" font-weight="800" fill="#ffffff" letter-spacing="0.5">
    Inventory Management
  </text>
  <text x="80" y="230" dy="62" font-family="Arial, Helvetica, sans-serif" font-size="58" font-weight="800" fill="#FF2D20" letter-spacing="0.5">
    REST API
  </text>

  <!-- Subtitle -->
  <text x="82" y="410" font-family="Arial, Helvetica, sans-serif" font-size="22" fill="#aab2c8" letter-spacing="0.5">
    Enterprise Backend System
    <tspan fill="#FF2D20" dx="10">|</tspan>
    <tspan fill="#aab2c8" dx="10">Laravel 13</tspan>
    <tspan fill="#FF2D20" dx="10">|</tspan>
    <tspan fill="#aab2c8" dx="10">Docker</tspan>
    <tspan fill="#FF2D20" dx="10">|</tspan>
    <tspan fill="#aab2c8" dx="10">REST API</tspan>
  </text>

  <!-- thin top/bottom frame lines -->
  <rect x="0" y="0" width="1600" height="500" fill="none" stroke="#FF2D20" stroke-opacity="0.15" stroke-width="2"/>
</svg>
